<svg height="512" viewBox="0 0 512 512" width="512" xmlns="http://www.w3.org/2000/svg"><g id="Outline"><path d="m288 112h16v16h-16z"/><path d="m320 112h40v16h-40z"/><path d="m272 144h88v16h-88z"/><path d="m272 176h88v16h-88z"/><path d="m272 208h88v16h-88z"/><path d="m272 240h72v16h-72z"/><path d="m80 392h232a24.028 24.028 0 0 0 24-24v-48a24.028 24.028 0 0 0 -24-24h-232a16 16 0 0 1 0-32v16h16v-200h64v24a8 8 0 0 1 -16 0v-8h-16v8a24 24 0 0 0 48 0v-24h208v352h-288v-24h-16v32a8 8 0 0 0 8 8h304a8 8 0 0 0 8-8v-368a8 8 0 0 0 -8-8h-216a32 32 0 0 0 -64 0h-24a8 8 0 0 0 -8 8v176a32.036 32.036 0 0 0 -32 32v80a32.036 32.036 0 0 0 32 32zm64-344a16.019 16.019 0 0 1 16 16h-32a16.019 16.019 0 0 1 16-16zm-80 259.706a31.808 31.808 0 0 0 16 4.294h232a8.009 8.009 0 0 1 8 8v48a8.009 8.009 0 0 1 -8 8h-232a16.019 16.019 0 0 1 -16-16z"/><path d="m112 336h16v16h-16z"/><path d="m144 336h152v16h-152z"/><path d="m112 480h312a8 8 0 0 0 8-8v-376h-16v368h-304z"/><path d="m120 208a64 64 0 1 0 64-64 64.072 64.072 0 0 0 -64 64zm72-47.321a47.741 47.741 0 0 1 19.788 8.219l-19.788 19.788zm-56 47.321a48.069 48.069 0 0 1 40-47.321v47.321a8 8 0 0 0 2.343 5.657l33.445 33.443a47.961 47.961 0 0 1 -75.788-39.1zm87.1 27.788-27.786-27.788 27.786-27.788a47.839 47.839 0 0 1 0 55.576z"/></g></svg>