<svg id="Layer_1" data-name="Layer 1" xmlns="http://www.w3.org/2000/svg" width="400" height="250" viewBox="0 0 400 250"><defs><style>.cls-1{fill:#010101;}</style></defs><title>Innervation Rewards Logo</title><path class="cls-1" d="M152.58,121.54c-5.46-2.21-7.74-3.34-7.74-6.31,0-2,1.48-5,6.32-5a9.74,9.74,0,0,1,9.23,6.12l-.29-6.21a17.88,17.88,0,0,0-8.14-1.79c-5.41,0-11.8,2.68-11.8,8.33,0,3.86,2.8,6.26,8.32,8.53s9.63,3.2,9.63,7.72c0,2.31-1.59,6.31-7.75,6.31s-9.17-4.33-10.37-7.72l.17,7.06a23.72,23.72,0,0,0,10.6,2.64c6.1,0,12.59-3.72,12.59-9.61,0-6.31-5.35-7.77-10.77-10.08"/><path class="cls-1" d="M208.15,111a38.81,38.81,0,0,0-13.44-2.68c-14.47,0-21.82,8.52-21.82,16.53,0,9.84,9.91,16.34,21.19,16.34A33.1,33.1,0,0,0,208.44,138s.62-6.64.51-6.49a14.92,14.92,0,0,1-13.84,7.62c-11.91,0-16.41-8.09-16.41-14.88,0-7.62,5.58-13.93,16.46-13.93,2.8,0,9.86.7,13.51,7.67.11.19-.52-7-.52-7"/><path class="cls-1" d="M247.24,110.9v11.16H227.41V110.9a2.23,2.23,0,0,1,1.48-2.12h-8.43a2.16,2.16,0,0,1,1.48,2.12v27.78a2.23,2.23,0,0,1-1.48,2.12h8.43a2.32,2.32,0,0,1-1.48-2.12V124h19.83v14.69a2.23,2.23,0,0,1-1.48,2.12h8.43a2.15,2.15,0,0,1-1.48-2.12V110.9a2.09,2.09,0,0,1,1.48-2.12h-8.43a2.16,2.16,0,0,1,1.48,2.12"/><path class="cls-1" d="M267,108.78a2.21,2.21,0,0,1,1.54,2.12v27.78A2.29,2.29,0,0,1,267,140.8h8.43a2.32,2.32,0,0,1-1.48-2.12V110.9a2.23,2.23,0,0,1,1.48-2.12Z"/><path class="cls-1" d="M316.33,131.71l-22.5-22.93H286a7.14,7.14,0,0,1,2.62,1.7c.68.75.68.84.68,2.21v26a2.3,2.3,0,0,1-1.48,2.12h5.76a2.19,2.19,0,0,1-1.6-2.12V114c0,.47,27.12,27.69,27.12,27.69V110.9a2.2,2.2,0,0,1,1.54-2.12h-5.76a2.22,2.22,0,0,1,1.48,2.12Z"/><path class="cls-1" d="M331.57,108.78a2.21,2.21,0,0,1,1.54,2.12v27.78a2.29,2.29,0,0,1-1.54,2.12H340a2.3,2.3,0,0,1-1.48-2.12V110.9a2.22,2.22,0,0,1,1.48-2.12Z"/><path class="cls-1" d="M131.13,125.07c.29-10.73-10.71-16.57-20.11-16.71-13.5-.33-21.36,8.33-21.65,16-.28,9.7,9.46,16.72,20.51,16.91,9.52.23,21-5.42,21.25-16.16m-20.85-14.73c8.55,0,14.7,5.79,14.59,14.87,0,8.48-6,13.85-14.47,13.85-7,0-14.87-4.66-14.87-15,0-8.62,6.32-13.75,14.75-13.75"/><path class="cls-1" d="M67.13,138.65l0-14.91h9.54a2.67,2.67,0,0,1,2,1.34v-4.64a2.67,2.67,0,0,1-2,1.34H67.17V110.26s9.66.1,11,.19c2.84,0,4.11.67,4.92,1.82l-.06-4H60a2.29,2.29,0,0,1,1.62,2.15v28.2A2.15,2.15,0,0,1,60,140.8h8.79a2.18,2.18,0,0,1-1.66-2.15"/></svg>